# xmcd
#
# Track frame offsets:
#	150
#	13700
#	27910
#	40795
#	50952
#	63512
#	76282
#	87122
#	99337
#	108959
#	122012
#	133809
#	146677
#	159135
#	168550
#	181297
#	195502
#	211295
#	224595
#
# Disc length: 3162 seconds
#
# Revision: 1
# Processed by: cddbd v1.5.2PL0 Copyright (c) Steve Scherf et al.
# Submitted via: audiograbber 1.83.01
#
DISCID=080c5813
DTITLE=Merle Haggard - The Best of Merle Haggard (Ed's Choice)
DYEAR=1900
DGENRE=
TTITLE0=The Fugitive
TTITLE1=Branded Man
TTITLE2=Sing Me Back Home
TTITLE3=Mama Tried
TTITLE4=In The Good Old Days (When Times Were Bad)
TTITLE5=I Take A Lot Of Pride In What I Am
TTITLE6=I'll Always Know
TTITLE7=The Day The Rains Came
TTITLE8=The Legend Of Bonnie and Clyde
TTITLE9=Waitin' For A Train
TTITLE10=Workin' Man Blues
TTITLE11=White Line Fever
TTITLE12=Okie From Muskogee
TTITLE13=I'll Be A Hero (When I Strike)
TTITLE14=California Cottonfields
TTITLE15=Huntsville
TTITLE16=Hungry Eyes
TTITLE17=The Farmer's Daughter
TTITLE18=I'm Bringing Home Good News
EXTD=
EXTT0=
EXTT1=
EXTT2=
EXTT3=
EXTT4=
EXTT5=
EXTT6=
EXTT7=
EXTT8=
EXTT9=
EXTT10=
EXTT11=
EXTT12=
EXTT13=
EXTT14=
EXTT15=
EXTT16=
EXTT17=
EXTT18=
PLAYORDER=
